# xmcd
#
# Track frame offsets: 
#        150
#        14282
#        50178
#        64969
#        78295
#        91493
#        105222
#        118717
#        133789
#        147794
#        161013
#        174551
#        188426
#        199304
#        216596
#        235155
#        264254
#
# Disc length: 4003 seconds
#
# Revision: 1
# Processed by: cddbd v1.5.2PL0 Copyright (c) Steve Scherf et al.
# Submitted via: ExactAudioCopy v1.0b3
#
DISCID=f00fa111
DTITLE=Various Artist - Jazz [CD 2)
DYEAR=2004
DGENRE=Jazz
TTITLE0=Ella Fitzgerald - My Heart Belongs to Daddy
TTITLE1=Ben Webster - Old Folks
TTITLE2=Lester Young - These Foolish Things
TTITLE3=Nat King Cole - Hit That Jave Jack
TTITLE4=Roy Eldridge - Fiesta In Brass
TTITLE5=Louis Armstrong - C' Est Ci Bon
TTITLE6=Sarah Vaughan - It Might as well be Spring
TTITLE7=Charlie Parker - Loverman
TTITLE8=Miles Davis - Moon Dreams
TTITLE9=Thelonius Monk - Straight, No Chaser
TTITLE10=Dexter Gordon - Dexter's Riff
TTITLE11=Oscar Peterson - Smoke Gets In Your Eyes
TTITLE12=Stan Getz - Lullaby Of Birdland
TTITLE13=Gerry Mulligan - Catch As Catch Can
TTITLE14=John Coltrane - Naima
TTITLE15=West Montgomery - 4 On 6
TTITLE16=Roland Kirk - Three for the Festival
EXTD=YEAR: 2004
EXTT0=
EXTT1=
EXTT2=
EXTT3=
EXTT4=
EXTT5=
EXTT6=
EXTT7=
EXTT8=
EXTT9=
EXTT10=
EXTT11=
EXTT12=
EXTT13=
EXTT14=
EXTT15=
EXTT16=
PLAYORDER=
